<svg xmlns="http://www.w3.org/2000/svg" viewBox="0 0 64 64"><title>logosx</title><g id="b05cc472-aad8-4c14-b50b-413d0d7a22e1" data-name="Layer 2"><g id="ede6ec67-ec65-4939-ae2b-f5900d55b18e" data-name="Layer 1"><circle cx="32" cy="32" r="31.5" style="fill:#392d40;stroke:#392d40;stroke-linecap:round;stroke-linejoin:round"/><path d="M40.13,9.88,39.51,7.5l-2.38-.62,2.38-.62.62-2.38.62,2.38,2.38.62-2.38.62Z" style="fill:#fff"/><path d="M15,19l-.41-1.58L13,17l1.59-.41L15,15l.41,1.59L17,17l-1.59.42Z" style="fill:#fff"/><path d="M10,36.75l-.57-2.18L7.25,34l2.18-.57L10,31.25l.57,2.18,2.18.57-2.18.57Z" style="fill:#fff"/><path d="M55,34.5l-.52-2-2-.52,2-.52.52-2,.52,2,2,.52-2,.52Z" style="fill:#fff"/><path d="M16.5,13l-.31-1.19L15,11.5l1.19-.31L16.5,10l.31,1.19L18,11.5l-1.19.31Z" style="fill:#fff"/><path d="M53.12,50.87l-.38-1.49L51.25,49l1.49-.38.38-1.49.39,1.49L55,49l-1.49.39Z" style="fill:#fff"/><path d="M50,20.5l-.31-1.19L48.5,19l1.19-.31L50,17.5l.31,1.19L51.5,19l-1.19.31Z" style="fill:#fff"/><path d="M27,62l-.52-2-2-.52,2-.52L27,57l.52,2,2,.52-2,.52Z" style="fill:#fff"/><path d="M43.27,43.84v4.58h0a41.6,41.6,0,0,1-22.65,0l0,0V43.76" style="fill:#e9eded;fill-rule:evenodd"/><path d="M43.27,40.57v4.59h0a41.6,41.6,0,0,1-22.65,0h0V40.49" style="fill:#cad1d8;fill-rule:evenodd"/><path d="M47.4,30a1.33,1.33,0,0,1,1.34,1.33v1.33h.66a.67.67,0,0,1,.67.67v1.33a.67.67,0,0,1-.67.67h-.66v1.33a1.34,1.34,0,1,1-2.67,0V31.34A1.32,1.32,0,0,1,47.4,30ZM16.6,30a1.33,1.33,0,0,0-1.34,1.33v1.33H14.6a.67.67,0,0,0-.67.67v1.33a.67.67,0,0,0,.67.67h.66v1.33a1.34,1.34,0,1,0,2.67,0V31.34A1.33,1.33,0,0,0,16.6,30Z" style="fill:#f17f53"/><path d="M47.27,42.33v-13a15.34,15.34,0,1,0-30.67,0V42.67a40.69,40.69,0,0,0,30.67,0Z" style="fill:#e9eded"/><path d="M47.17,27.75a55.06,55.06,0,0,0-30.54,0l0,12.09a55.52,55.52,0,0,0,30.67,0C47.23,35.81,47.46,30.67,47.17,27.75Z" style="fill:#3b3d45;fill-rule:evenodd"/><path d="M31.93,14c-.22,0-.44,0-.67,0v8a.67.67,0,1,0,1.34,0V14C32.38,14,32.15,14,31.93,14Zm-9.38,3.21c-.35.27-.66.56-1,.86a1,1,0,0,0,.13.16A5.34,5.34,0,0,1,23.26,22a.67.67,0,0,0,.66.68h0A.67.67,0,0,0,24.6,22h0a6.68,6.68,0,0,0-2-4.71l-.09-.08Zm18.77,0a.39.39,0,0,0-.1.08A6.67,6.67,0,0,0,39.27,22a.66.66,0,0,0,.65.68h0A.67.67,0,0,0,40.6,22v0a5.34,5.34,0,0,1,1.56-3.77,1,1,0,0,0,.13-.16c-.32-.3-.63-.59-1-.86Z" style="fill:#cad1d8"/></g></g></svg>